<mxfile host="Electron" modified="2024-04-07T13:18:31.127Z" agent="Mozilla/5.0 (Windows NT 10.0; Win64; x64) AppleWebKit/537.36 (KHTML, like Gecko) draw.io/24.1.0 Chrome/120.0.6099.109 Electron/28.1.0 Safari/537.36" etag="0ZvSDVWwiizulb5KQTNK" version="24.1.0" type="device">
  <diagram id="wrOhlIF0k3vOvgMMfUUx" name="Page-1">
    <mxGraphModel dx="794" dy="511" grid="1" gridSize="10" guides="1" tooltips="1" connect="1" arrows="1" fold="1" page="1" pageScale="1" pageWidth="827" pageHeight="1169" math="0" shadow="0">
      <root>
        <mxCell id="0" />
        <mxCell id="1" parent="0" />
        <mxCell id="Pmuhz_MxlHkOLa46dXON-2" value="F_FX_EXCHANGE_RATE" style="swimlane;fontStyle=0;childLayout=stackLayout;horizontal=1;startSize=30;horizontalStack=0;resizeParent=1;resizeParentMax=0;resizeLast=0;collapsible=1;marginBottom=0;" parent="1" vertex="1">
          <mxGeometry x="385.82" y="282" width="174.18" height="90" as="geometry" />
        </mxCell>
        <mxCell id="Pmuhz_MxlHkOLa46dXON-6" value="CurrentRate" style="text;strokeColor=none;fillColor=none;align=left;verticalAlign=middle;spacingLeft=4;spacingRight=4;overflow=hidden;points=[[0,0.5],[1,0.5]];portConstraint=eastwest;rotatable=0;" parent="Pmuhz_MxlHkOLa46dXON-2" vertex="1">
          <mxGeometry y="30" width="174.18" height="30" as="geometry" />
        </mxCell>
        <mxCell id="Pmuhz_MxlHkOLa46dXON-5" value="ChangePercentage" style="text;strokeColor=none;fillColor=none;align=left;verticalAlign=middle;spacingLeft=4;spacingRight=4;overflow=hidden;points=[[0,0.5],[1,0.5]];portConstraint=eastwest;rotatable=0;" parent="Pmuhz_MxlHkOLa46dXON-2" vertex="1">
          <mxGeometry y="60" width="174.18" height="30" as="geometry" />
        </mxCell>
        <mxCell id="Pmuhz_MxlHkOLa46dXON-17" value="" style="group" parent="1" vertex="1" connectable="0">
          <mxGeometry x="163.82" y="484" width="80" height="30" as="geometry" />
        </mxCell>
        <mxCell id="Pmuhz_MxlHkOLa46dXON-14" value=" " style="ellipse;whiteSpace=wrap;html=1;aspect=fixed;direction=south;" parent="Pmuhz_MxlHkOLa46dXON-17" vertex="1">
          <mxGeometry x="53.77049180327869" y="6" width="20" height="20" as="geometry" />
        </mxCell>
        <mxCell id="Pmuhz_MxlHkOLa46dXON-16" value="Semester" style="text;html=1;align=center;verticalAlign=middle;resizable=0;points=[];autosize=1;strokeColor=none;fillColor=none;" parent="Pmuhz_MxlHkOLa46dXON-17" vertex="1">
          <mxGeometry x="-13.114754098360654" width="70" height="30" as="geometry" />
        </mxCell>
        <mxCell id="Pmuhz_MxlHkOLa46dXON-18" value="" style="group" parent="1" vertex="1" connectable="0">
          <mxGeometry x="253.82" y="322" width="61" height="30" as="geometry" />
        </mxCell>
        <mxCell id="Pmuhz_MxlHkOLa46dXON-19" value=" " style="ellipse;whiteSpace=wrap;html=1;aspect=fixed;direction=south;" parent="Pmuhz_MxlHkOLa46dXON-18" vertex="1">
          <mxGeometry x="41" y="6" width="20" height="20" as="geometry" />
        </mxCell>
        <mxCell id="Pmuhz_MxlHkOLa46dXON-20" value="Datetime" style="text;html=1;align=center;verticalAlign=middle;resizable=0;points=[];autosize=1;strokeColor=none;fillColor=none;" parent="Pmuhz_MxlHkOLa46dXON-18" vertex="1">
          <mxGeometry x="1" y="-16" width="70" height="30" as="geometry" />
        </mxCell>
        <mxCell id="Pmuhz_MxlHkOLa46dXON-21" value="" style="group" parent="1" vertex="1" connectable="0">
          <mxGeometry x="168.32" y="554" width="71" height="30" as="geometry" />
        </mxCell>
        <mxCell id="Pmuhz_MxlHkOLa46dXON-22" value=" " style="ellipse;whiteSpace=wrap;html=1;aspect=fixed;direction=south;" parent="Pmuhz_MxlHkOLa46dXON-21" vertex="1">
          <mxGeometry x="47.721311475409834" y="6" width="20" height="20" as="geometry" />
        </mxCell>
        <mxCell id="Pmuhz_MxlHkOLa46dXON-23" value="Year" style="text;html=1;align=center;verticalAlign=middle;resizable=0;points=[];autosize=1;strokeColor=none;fillColor=none;" parent="Pmuhz_MxlHkOLa46dXON-21" vertex="1">
          <mxGeometry x="-0.8196721311475406" width="50" height="30" as="geometry" />
        </mxCell>
        <mxCell id="Pmuhz_MxlHkOLa46dXON-25" value="" style="group" parent="1" vertex="1" connectable="0">
          <mxGeometry x="140" y="420" width="71" height="30" as="geometry" />
        </mxCell>
        <mxCell id="Pmuhz_MxlHkOLa46dXON-26" value=" " style="ellipse;whiteSpace=wrap;html=1;aspect=fixed;direction=south;" parent="Pmuhz_MxlHkOLa46dXON-25" vertex="1">
          <mxGeometry x="47.721311475409834" y="6" width="20" height="20" as="geometry" />
        </mxCell>
        <mxCell id="Pmuhz_MxlHkOLa46dXON-27" value="Month" style="text;html=1;align=center;verticalAlign=middle;resizable=0;points=[];autosize=1;strokeColor=none;fillColor=none;" parent="Pmuhz_MxlHkOLa46dXON-25" vertex="1">
          <mxGeometry x="-5.819672131147541" width="60" height="30" as="geometry" />
        </mxCell>
        <mxCell id="Pmuhz_MxlHkOLa46dXON-39" value="" style="endArrow=none;html=1;strokeColor=default;rounded=0;startArrow=block;startFill=1;entryX=0.5;entryY=1;entryDx=0;entryDy=0;exitX=0;exitY=0;exitDx=0;exitDy=0;" parent="1" source="4vlrvuO8_zKgmpV1qPd3-12" target="Pmuhz_MxlHkOLa46dXON-19" edge="1">
          <mxGeometry width="50" height="50" relative="1" as="geometry">
            <mxPoint x="237.56131147540975" y="371.55999999999995" as="sourcePoint" />
            <mxPoint x="263" y="318" as="targetPoint" />
          </mxGeometry>
        </mxCell>
        <mxCell id="Pmuhz_MxlHkOLa46dXON-42" value="" style="endArrow=none;html=1;entryX=1;entryY=0.5;entryDx=0;entryDy=0;strokeColor=default;rounded=0;startArrow=block;startFill=1;exitX=0;exitY=0.5;exitDx=0;exitDy=0;" parent="1" source="Pmuhz_MxlHkOLa46dXON-14" edge="1">
          <mxGeometry width="50" height="50" relative="1" as="geometry">
            <mxPoint x="235.5904918032786" y="486" as="sourcePoint" />
            <mxPoint x="199.54131147540988" y="446" as="targetPoint" />
          </mxGeometry>
        </mxCell>
        <mxCell id="Pmuhz_MxlHkOLa46dXON-43" value="" style="endArrow=none;html=1;strokeColor=default;rounded=0;startArrow=block;startFill=1;entryX=1;entryY=0.5;entryDx=0;entryDy=0;exitX=0;exitY=0.5;exitDx=0;exitDy=0;" parent="1" source="Pmuhz_MxlHkOLa46dXON-22" target="Pmuhz_MxlHkOLa46dXON-14" edge="1">
          <mxGeometry width="50" height="50" relative="1" as="geometry">
            <mxPoint x="228" y="552" as="sourcePoint" />
            <mxPoint x="213.82" y="514" as="targetPoint" />
          </mxGeometry>
        </mxCell>
        <mxCell id="Pmuhz_MxlHkOLa46dXON-47" value="&lt;div&gt;&lt;font style=&quot;font-size: 8px;&quot;&gt;Event Time&lt;/font&gt;&lt;/div&gt;" style="text;html=1;align=center;verticalAlign=middle;resizable=0;points=[];autosize=1;strokeColor=none;fillColor=none;rotation=0;" parent="1" vertex="1">
          <mxGeometry x="323.82" y="298" width="60" height="30" as="geometry" />
        </mxCell>
        <mxCell id="Pmuhz_MxlHkOLa46dXON-169" value=" " style="ellipse;whiteSpace=wrap;html=1;aspect=fixed;direction=west;" parent="1" vertex="1">
          <mxGeometry x="221.27999999999997" y="565" width="10" height="10" as="geometry" />
        </mxCell>
        <mxCell id="4vlrvuO8_zKgmpV1qPd3-11" value="" style="group" vertex="1" connectable="0" parent="1">
          <mxGeometry x="182.82" y="372" width="71" height="30" as="geometry" />
        </mxCell>
        <mxCell id="4vlrvuO8_zKgmpV1qPd3-12" value=" " style="ellipse;whiteSpace=wrap;html=1;aspect=fixed;direction=south;" vertex="1" parent="4vlrvuO8_zKgmpV1qPd3-11">
          <mxGeometry x="47.721311475409834" y="6" width="20" height="20" as="geometry" />
        </mxCell>
        <mxCell id="4vlrvuO8_zKgmpV1qPd3-13" value="Date" style="text;html=1;align=center;verticalAlign=middle;resizable=0;points=[];autosize=1;strokeColor=none;fillColor=none;" vertex="1" parent="4vlrvuO8_zKgmpV1qPd3-11">
          <mxGeometry x="-0.8196721311475406" width="50" height="30" as="geometry" />
        </mxCell>
        <mxCell id="4vlrvuO8_zKgmpV1qPd3-14" value="" style="endArrow=none;html=1;strokeColor=default;rounded=0;startArrow=block;startFill=1;entryX=1;entryY=1;entryDx=0;entryDy=0;exitX=1.115;exitY=0.196;exitDx=0;exitDy=0;exitPerimeter=0;" edge="1" parent="1" source="Pmuhz_MxlHkOLa46dXON-27" target="4vlrvuO8_zKgmpV1qPd3-12">
          <mxGeometry width="50" height="50" relative="1" as="geometry">
            <mxPoint x="200" y="440" as="sourcePoint" />
            <mxPoint x="530" y="470" as="targetPoint" />
          </mxGeometry>
        </mxCell>
        <mxCell id="4vlrvuO8_zKgmpV1qPd3-17" value="" style="group" vertex="1" connectable="0" parent="1">
          <mxGeometry x="351.8236876749618" y="330.57020894892594" width="7.992624650076436" height="12.859582102148124" as="geometry" />
        </mxCell>
        <mxCell id="Pmuhz_MxlHkOLa46dXON-28" value="" style="endArrow=none;html=1;entryX=0.004;entryY=0.761;entryDx=0;entryDy=0;entryPerimeter=0;strokeColor=default;rounded=0;startArrow=none;startFill=0;exitX=0;exitY=0;exitDx=0;exitDy=0;" parent="4vlrvuO8_zKgmpV1qPd3-17" edge="1" source="Pmuhz_MxlHkOLa46dXON-19">
          <mxGeometry width="50" height="50" relative="1" as="geometry">
            <mxPoint x="-37.00368767496178" y="-6.570208948925938" as="sourcePoint" />
            <mxPoint x="34.69303232503819" y="-10.740208948925954" as="targetPoint" />
          </mxGeometry>
        </mxCell>
        <mxCell id="Pmuhz_MxlHkOLa46dXON-34" value="" style="html=1;verticalLabelPosition=bottom;labelBackgroundColor=#ffffff;verticalAlign=top;shadow=0;dashed=0;strokeWidth=2;shape=mxgraph.ios7.misc.up;strokeColor=#000000;fillColor=#000000;rotation=-180;direction=south;" parent="4vlrvuO8_zKgmpV1qPd3-17" vertex="1">
          <mxGeometry x="0.9963123250382182" y="-11.000208948925938" width="6" height="12" as="geometry" />
        </mxCell>
        <mxCell id="4vlrvuO8_zKgmpV1qPd3-19" value="&lt;div&gt;&lt;font style=&quot;font-size: 8px;&quot;&gt;Yesterday NY Time&lt;/font&gt;&lt;/div&gt;" style="text;html=1;align=center;verticalAlign=middle;resizable=0;points=[];autosize=1;strokeColor=none;fillColor=none;rotation=0;" vertex="1" parent="1">
          <mxGeometry x="301.82" y="348" width="90" height="30" as="geometry" />
        </mxCell>
        <mxCell id="4vlrvuO8_zKgmpV1qPd3-20" value="" style="endArrow=none;html=1;entryX=0;entryY=0.5;entryDx=0;entryDy=0;strokeColor=default;rounded=0;startArrow=none;startFill=0;exitX=1;exitY=0;exitDx=0;exitDy=0;" edge="1" parent="1" source="Pmuhz_MxlHkOLa46dXON-19" target="Pmuhz_MxlHkOLa46dXON-5">
          <mxGeometry width="50" height="50" relative="1" as="geometry">
            <mxPoint x="321.8236876749618" y="417.57020894892594" as="sourcePoint" />
            <mxPoint x="396.51671999999996" y="405.83" as="targetPoint" />
          </mxGeometry>
        </mxCell>
        <mxCell id="4vlrvuO8_zKgmpV1qPd3-21" value="" style="html=1;verticalLabelPosition=bottom;labelBackgroundColor=#ffffff;verticalAlign=top;shadow=0;dashed=0;strokeWidth=2;shape=mxgraph.ios7.misc.up;strokeColor=#000000;fillColor=#000000;rotation=-180;direction=south;" vertex="1" parent="1">
          <mxGeometry x="355.82" y="346.57" width="6" height="12" as="geometry" />
        </mxCell>
        <mxCell id="4vlrvuO8_zKgmpV1qPd3-43" value="" style="group" vertex="1" connectable="0" parent="1">
          <mxGeometry x="625.82" y="292" width="61" height="35" as="geometry" />
        </mxCell>
        <mxCell id="4vlrvuO8_zKgmpV1qPd3-44" value=" " style="ellipse;whiteSpace=wrap;html=1;aspect=fixed;direction=south;" vertex="1" parent="4vlrvuO8_zKgmpV1qPd3-43">
          <mxGeometry x="41" y="6" width="20" height="20" as="geometry" />
        </mxCell>
        <mxCell id="4vlrvuO8_zKgmpV1qPd3-45" value="&lt;font style=&quot;font-size: 11px;&quot;&gt;Currency&lt;br&gt;&lt;/font&gt;" style="text;html=1;align=center;verticalAlign=middle;resizable=0;points=[];autosize=1;strokeColor=none;fillColor=none;fontSize=8;" vertex="1" parent="1">
          <mxGeometry x="648.82" y="310" width="70" height="30" as="geometry" />
        </mxCell>
        <mxCell id="4vlrvuO8_zKgmpV1qPd3-46" value="" style="endArrow=none;html=1;strokeColor=default;rounded=0;startArrow=none;startFill=0;exitX=0.257;exitY=-0.126;exitDx=0;exitDy=0;exitPerimeter=0;entryX=1.003;entryY=0.181;entryDx=0;entryDy=0;entryPerimeter=0;" edge="1" parent="1" source="4vlrvuO8_zKgmpV1qPd3-45" target="Pmuhz_MxlHkOLa46dXON-2">
          <mxGeometry width="50" height="50" relative="1" as="geometry">
            <mxPoint x="603.5400000000001" y="479.1700000000001" as="sourcePoint" />
            <mxPoint x="526" y="327" as="targetPoint" />
          </mxGeometry>
        </mxCell>
        <mxCell id="4vlrvuO8_zKgmpV1qPd3-47" value="" style="html=1;verticalLabelPosition=bottom;labelBackgroundColor=#ffffff;verticalAlign=top;shadow=0;dashed=0;strokeWidth=2;shape=mxgraph.ios7.misc.up;strokeColor=#000000;fillColor=#000000;rotation=90;" vertex="1" parent="1">
          <mxGeometry x="601.82" y="299" width="12" height="6" as="geometry" />
        </mxCell>
        <mxCell id="4vlrvuO8_zKgmpV1qPd3-48" value="" style="endArrow=none;html=1;rounded=0;fontSize=11;strokeColor=default;strokeWidth=1;entryX=0;entryY=1;entryDx=0;entryDy=0;" edge="1" parent="1" target="4vlrvuO8_zKgmpV1qPd3-44">
          <mxGeometry width="50" height="50" relative="1" as="geometry">
            <mxPoint x="655.82" y="262" as="sourcePoint" />
            <mxPoint x="625.82" y="382" as="targetPoint" />
          </mxGeometry>
        </mxCell>
        <mxCell id="4vlrvuO8_zKgmpV1qPd3-49" value="" style="html=1;verticalLabelPosition=bottom;labelBackgroundColor=#ffffff;verticalAlign=top;shadow=0;dashed=0;strokeWidth=2;shape=mxgraph.ios7.misc.up;strokeColor=#000000;fillColor=#000000;rotation=-15;" vertex="1" parent="1">
          <mxGeometry x="656.82" y="280" width="12" height="6" as="geometry" />
        </mxCell>
        <mxCell id="4vlrvuO8_zKgmpV1qPd3-50" value="" style="endArrow=none;html=1;rounded=0;fontSize=11;strokeColor=default;strokeWidth=1;" edge="1" parent="1">
          <mxGeometry width="50" height="50" relative="1" as="geometry">
            <mxPoint x="655.82" y="262" as="sourcePoint" />
            <mxPoint x="685.82" y="262" as="targetPoint" />
          </mxGeometry>
        </mxCell>
        <mxCell id="4vlrvuO8_zKgmpV1qPd3-51" value="" style="endArrow=none;html=1;rounded=0;fontSize=11;strokeColor=default;strokeWidth=1;entryX=-0.007;entryY=0.323;entryDx=0;entryDy=0;entryPerimeter=0;" edge="1" parent="1" target="4vlrvuO8_zKgmpV1qPd3-44">
          <mxGeometry width="50" height="50" relative="1" as="geometry">
            <mxPoint x="705.82" y="262" as="sourcePoint" />
            <mxPoint x="729.7489321881347" y="310.92893218813475" as="targetPoint" />
          </mxGeometry>
        </mxCell>
        <mxCell id="4vlrvuO8_zKgmpV1qPd3-52" value="" style="html=1;verticalLabelPosition=bottom;labelBackgroundColor=#ffffff;verticalAlign=top;shadow=0;dashed=0;strokeWidth=2;shape=mxgraph.ios7.misc.up;strokeColor=#000000;fillColor=#000000;rotation=40;" vertex="1" parent="1">
          <mxGeometry x="685.82" y="279" width="12" height="6" as="geometry" />
        </mxCell>
        <mxCell id="4vlrvuO8_zKgmpV1qPd3-53" value="" style="endArrow=none;html=1;rounded=0;fontSize=11;strokeColor=default;strokeWidth=1;" edge="1" parent="1">
          <mxGeometry width="50" height="50" relative="1" as="geometry">
            <mxPoint x="735.82" y="262" as="sourcePoint" />
            <mxPoint x="705.82" y="262" as="targetPoint" />
          </mxGeometry>
        </mxCell>
        <mxCell id="4vlrvuO8_zKgmpV1qPd3-57" value="&lt;font style=&quot;font-size: 6px;&quot;&gt;CurrencyDescription&lt;/font&gt;" style="text;html=1;align=center;verticalAlign=middle;resizable=0;points=[];autosize=1;strokeColor=none;fillColor=none;fontSize=11;" vertex="1" parent="1">
          <mxGeometry x="684.82" y="240" width="80" height="30" as="geometry" />
        </mxCell>
        <mxCell id="4vlrvuO8_zKgmpV1qPd3-58" value="&lt;div&gt;CurrencyName&lt;/div&gt;" style="text;whiteSpace=wrap;html=1;fontSize=6;" vertex="1" parent="1">
          <mxGeometry x="644.82" y="247" width="57" height="12" as="geometry" />
        </mxCell>
        <mxCell id="4vlrvuO8_zKgmpV1qPd3-61" value=" " style="ellipse;whiteSpace=wrap;html=1;aspect=fixed;direction=west;" vertex="1" parent="1">
          <mxGeometry x="671.8199999999999" y="303" width="10" height="10" as="geometry" />
        </mxCell>
        <mxCell id="4vlrvuO8_zKgmpV1qPd3-63" value="&lt;div&gt;&lt;font style=&quot;font-size: 8px;&quot;&gt;Base Currency&lt;/font&gt;&lt;/div&gt;" style="text;html=1;align=center;verticalAlign=middle;resizable=0;points=[];autosize=1;strokeColor=none;fillColor=none;rotation=15;" vertex="1" parent="1">
          <mxGeometry x="571.8199999999999" y="275" width="80" height="30" as="geometry" />
        </mxCell>
        <mxCell id="4vlrvuO8_zKgmpV1qPd3-64" value="" style="endArrow=none;html=1;strokeColor=default;rounded=0;startArrow=none;startFill=0;exitX=0.258;exitY=0.085;exitDx=0;exitDy=0;exitPerimeter=0;entryX=0.997;entryY=0.4;entryDx=0;entryDy=0;entryPerimeter=0;" edge="1" parent="1" source="4vlrvuO8_zKgmpV1qPd3-45" target="Pmuhz_MxlHkOLa46dXON-5">
          <mxGeometry width="50" height="50" relative="1" as="geometry">
            <mxPoint x="677" y="316" as="sourcePoint" />
            <mxPoint x="571" y="308" as="targetPoint" />
          </mxGeometry>
        </mxCell>
        <mxCell id="4vlrvuO8_zKgmpV1qPd3-65" value="" style="html=1;verticalLabelPosition=bottom;labelBackgroundColor=#ffffff;verticalAlign=top;shadow=0;dashed=0;strokeWidth=2;shape=mxgraph.ios7.misc.up;strokeColor=#000000;fillColor=#000000;rotation=90;" vertex="1" parent="1">
          <mxGeometry x="605.82" y="330" width="12" height="6" as="geometry" />
        </mxCell>
        <mxCell id="4vlrvuO8_zKgmpV1qPd3-66" value="&lt;div&gt;&lt;font style=&quot;font-size: 8px;&quot;&gt;Quote Currency&lt;/font&gt;&lt;/div&gt;" style="text;html=1;align=center;verticalAlign=middle;resizable=0;points=[];autosize=1;strokeColor=none;fillColor=none;rotation=-15;" vertex="1" parent="1">
          <mxGeometry x="571.8199999999999" y="327" width="80" height="30" as="geometry" />
        </mxCell>
        <mxCell id="4vlrvuO8_zKgmpV1qPd3-67" value="" style="group" vertex="1" connectable="0" parent="1">
          <mxGeometry x="393" y="169" width="70" height="50" as="geometry" />
        </mxCell>
        <mxCell id="4vlrvuO8_zKgmpV1qPd3-68" value=" " style="ellipse;whiteSpace=wrap;html=1;aspect=fixed;direction=south;" vertex="1" parent="4vlrvuO8_zKgmpV1qPd3-67">
          <mxGeometry x="47.049180327868854" y="7" width="20" height="20" as="geometry" />
        </mxCell>
        <mxCell id="4vlrvuO8_zKgmpV1qPd3-69" value="&lt;font style=&quot;font-size: 12px;&quot;&gt;Event&lt;/font&gt;" style="text;html=1;align=center;verticalAlign=middle;resizable=0;points=[];autosize=1;strokeColor=none;fillColor=none;fontSize=7;" vertex="1" parent="4vlrvuO8_zKgmpV1qPd3-67">
          <mxGeometry x="12" y="16" width="50" height="30" as="geometry" />
        </mxCell>
        <mxCell id="4vlrvuO8_zKgmpV1qPd3-70" value="" style="endArrow=none;html=1;entryX=0.548;entryY=0.005;entryDx=0;entryDy=0;strokeColor=default;rounded=0;startArrow=none;startFill=0;exitX=1.094;exitY=0.883;exitDx=0;exitDy=0;entryPerimeter=0;exitPerimeter=0;" edge="1" parent="1">
          <mxGeometry width="50" height="50" relative="1" as="geometry">
            <mxPoint x="452.9022950819674" y="195.48999999999995" as="sourcePoint" />
            <mxPoint x="486" y="282" as="targetPoint" />
          </mxGeometry>
        </mxCell>
        <mxCell id="4vlrvuO8_zKgmpV1qPd3-71" value="" style="html=1;verticalLabelPosition=bottom;labelBackgroundColor=#ffffff;verticalAlign=top;shadow=0;dashed=0;strokeWidth=2;shape=mxgraph.ios7.misc.up;strokeColor=#000000;fillColor=#000000;rotation=-15;" vertex="1" parent="1">
          <mxGeometry x="462.83000000000004" y="232.78" width="11" height="6" as="geometry" />
        </mxCell>
        <mxCell id="4vlrvuO8_zKgmpV1qPd3-72" value="" style="endArrow=none;html=1;rounded=0;fontSize=11;strokeColor=default;strokeWidth=1;entryX=0;entryY=0.5;entryDx=0;entryDy=0;" edge="1" parent="1" target="4vlrvuO8_zKgmpV1qPd3-68">
          <mxGeometry width="50" height="50" relative="1" as="geometry">
            <mxPoint x="460" y="150" as="sourcePoint" />
            <mxPoint x="419.74893218814736" y="180.92893218814726" as="targetPoint" />
          </mxGeometry>
        </mxCell>
        <mxCell id="4vlrvuO8_zKgmpV1qPd3-73" value="" style="html=1;verticalLabelPosition=bottom;labelBackgroundColor=#ffffff;verticalAlign=top;shadow=0;dashed=0;strokeWidth=2;shape=mxgraph.ios7.misc.up;strokeColor=#000000;fillColor=#000000;rotation=15;" vertex="1" parent="1">
          <mxGeometry x="448.82000000000005" y="162" width="12" height="6" as="geometry" />
        </mxCell>
        <mxCell id="4vlrvuO8_zKgmpV1qPd3-74" value="EventID" style="text;whiteSpace=wrap;html=1;fontSize=6;" vertex="1" parent="1">
          <mxGeometry x="458.82000000000005" y="135" width="57" height="12" as="geometry" />
        </mxCell>
        <mxCell id="4vlrvuO8_zKgmpV1qPd3-75" value="" style="endArrow=none;html=1;rounded=0;fontSize=11;strokeColor=default;strokeWidth=1;" edge="1" parent="1">
          <mxGeometry width="50" height="50" relative="1" as="geometry">
            <mxPoint x="460" y="150" as="sourcePoint" />
            <mxPoint x="488.00000000000017" y="150" as="targetPoint" />
          </mxGeometry>
        </mxCell>
        <mxCell id="4vlrvuO8_zKgmpV1qPd3-76" value="&lt;font style=&quot;font-size: 7px;&quot;&gt;&lt;b&gt;Note&lt;/b&gt;: we can also have only EventIDS and EventID in the fact table since there are no attrubutes for the Event&lt;/font&gt;" style="rounded=1;whiteSpace=wrap;html=1;fillColor=#fff2cc;strokeColor=#d6b656;align=left;" vertex="1" parent="1">
          <mxGeometry x="490" y="110" width="104.18" height="71" as="geometry" />
        </mxCell>
      </root>
    </mxGraphModel>
  </diagram>
</mxfile>
